<svg xmlns="http://www.w3.org/2000/svg" width="512" height="512" viewBox="0 0 512 512" version="1.1">
	<path d="M 238.256 96.979 C 235.517 98.141, 232.009 103.661, 232.004 106.816 C 232.002 108.089, 232.563 110.114, 233.250 111.316 C 234.193 112.963, 234.623 127.504, 235 170.500 C 235.275 201.850, 235.445 227.630, 235.379 227.788 C 235.312 227.946, 233.737 225.701, 231.879 222.798 C 226.753 214.792, 218.430 204.618, 204.930 189.859 C 175.167 157.317, 158.202 131.080, 154.558 111.957 C 152.609 101.731, 150.345 99.643, 140.747 99.217 C 135.250 98.974, 132.655 99.331, 130 100.698 C 125.156 103.192, 122.726 108.225, 123.577 114 C 123.942 116.475, 124.424 150.900, 124.648 190.500 C 125.020 256.063, 124.908 262.832, 123.392 266.216 C 122.302 268.648, 121.932 271.195, 122.321 273.590 C 123.476 280.706, 129.193 284.356, 139.236 284.389 C 147.372 284.416, 150.771 282.383, 152.963 276.177 C 154.272 272.473, 154.251 271.479, 152.763 266.768 C 151.334 262.243, 151.022 254.167, 150.548 209.500 L 149.997 157.500 153.273 163.500 C 160.347 176.458, 172.995 192.968, 190.046 211.500 C 209.998 233.186, 223.059 251.069, 231.677 268.500 C 234.124 273.450, 237.314 278.745, 238.765 280.266 C 242.187 283.852, 247.404 285.238, 253.319 284.133 C 262.842 282.354, 265.941 277.337, 262.086 269.940 C 260.026 265.988, 260 265.015, 260 191.407 C 260 125.204, 260.182 116.319, 261.631 111.890 C 264.962 101.707, 260.615 96.658, 248.182 96.268 C 243.957 96.135, 239.490 96.455, 238.256 96.979 M 294.073 121.635 C 292.280 123.913, 292 125.664, 292 134.576 C 292 140.244, 291.611 145.123, 291.135 145.417 C 289.695 146.306, 289.054 152.856, 290.109 155.883 C 291.913 161.059, 299.816 162.629, 305.775 158.996 C 309.980 156.432, 311.352 152.926, 310.022 148.141 C 309.466 146.138, 309.009 143.037, 309.006 141.250 L 309 138 333.035 138 L 357.070 138 341.840 156.250 C 324.453 177.084, 313.313 189, 311.223 189 C 307.944 189, 312.362 198.297, 316.547 200.203 C 318.666 201.169, 320.342 200.636, 329.244 196.168 C 341.501 190.017, 350.189 187.629, 358.203 188.208 C 365.040 188.703, 368.487 190.864, 371.750 196.703 C 375.137 202.762, 376.220 210.162, 375.013 218.991 C 371.882 241.885, 352.533 257.049, 326.540 256.978 C 317.201 256.953, 311.463 254.863, 308.218 250.306 C 305.133 245.973, 304.600 242.674, 306.419 239.157 C 311.536 229.262, 302.014 221.036, 292.299 226.960 C 287.210 230.062, 285.750 233.970, 286.153 243.412 C 286.795 258.471, 295.053 270.143, 308.230 274.614 C 312.143 275.942, 316.204 276.361, 324 276.241 C 362.356 275.651, 389.035 255.734, 394.491 223.619 C 397.853 203.833, 394.791 189.238, 385.067 178.688 C 378.876 171.972, 372.779 169.731, 361.846 170.156 C 356.980 170.345, 352.999 170.355, 352.999 170.178 C 353 170.001, 359.155 162.627, 366.678 153.791 C 374.200 144.956, 381.175 136.118, 382.178 134.152 C 384.628 129.346, 384.550 123.550, 382 121 C 380.064 119.064, 378.667 119, 338.073 119 L 296.145 119 294.073 121.635 M 146.927 324.635 C 148.920 327.168, 149 328.431, 148.998 357.385 C 148.997 384.053, 148.797 387.901, 147.248 391 C 146.287 392.925, 145.050 394.479, 144.500 394.452 C 143.950 394.426, 140.870 394.031, 137.655 393.575 C 132.462 392.838, 131.582 392.974, 129.766 394.790 C 123.815 400.740, 136.120 402.091, 144.285 396.383 C 146.603 394.763, 149.958 391.269, 151.741 388.619 C 157.572 379.951, 158.282 376.019, 158.755 349.796 C 159.094 331.026, 159.476 325.850, 160.592 324.924 C 163.374 322.615, 161.866 322, 153.427 322 L 144.855 322 146.927 324.635 M 187 322.640 C 187 322.992, 187.787 323.855, 188.750 324.559 C 190.349 325.728, 190.500 328.405, 190.500 355.500 C 190.500 382.595, 190.349 385.272, 188.750 386.441 C 187.787 387.145, 187 388.008, 187 388.360 C 187 388.712, 197.125 389, 209.500 389 L 232 389 232.011 386.750 C 232.017 385.512, 232.293 382.700, 232.624 380.500 L 233.227 376.500 230.023 380.271 C 228.261 382.345, 225.487 384.731, 223.857 385.574 C 219.950 387.595, 203.669 388.058, 201.804 386.202 C 200.832 385.234, 200.415 379.261, 200.167 362.702 C 199.792 337.748, 200.497 326.646, 202.587 324.556 C 203.364 323.779, 204 322.886, 204 322.571 C 204 322.257, 200.175 322, 195.500 322 C 190.825 322, 187 322.288, 187 322.640 M 255 322.742 C 255 323.299, 255.675 324.315, 256.500 325 C 257.770 326.054, 258 330.694, 258 355.308 C 258 383.771, 257.955 384.419, 255.826 386.686 L 253.651 389 262.856 389 L 272.060 389 269.993 386.204 C 268.161 383.726, 267.958 382.219, 268.213 372.954 L 268.500 362.500 276.500 361.876 C 289.017 360.900, 294.953 357.528, 298.747 349.241 C 303.350 339.187, 300.191 330.198, 290.367 325.391 C 285.305 322.914, 283.578 322.646, 269.919 322.207 C 260.193 321.895, 255 322.081, 255 322.742 M 320 327.629 L 320 333.257 323.817 328.956 C 327.399 324.920, 328.016 324.626, 333.817 324.207 L 340 323.760 340 354.065 C 340 383.805, 339.959 384.414, 337.826 386.686 L 335.651 389 344.981 389 L 354.310 389 352.405 386.897 C 350.634 384.941, 350.480 382.651, 350.208 354.273 L 349.916 323.754 356.141 324.204 C 361.990 324.627, 362.595 324.913, 366.183 328.956 L 370 333.257 370 327.629 L 370 322 345 322 L 320 322 320 327.629 M 268.750 323.580 C 268.337 323.994, 268 332.636, 268 342.783 L 268 361.233 274.489 360.820 C 285.827 360.098, 290.318 354.557, 289.807 341.922 C 289.547 335.506, 289.087 333.803, 286.806 330.813 C 285.325 328.871, 282.596 326.562, 280.743 325.682 C 276.667 323.748, 269.784 322.542, 268.750 323.580" stroke="none" fill="black" fill-rule="evenodd"/>
</svg>